<svg xmlns="http://www.w3.org/2000/svg" width="17" height="15.177" viewBox="0 0 17 15.177">
  <g id="Group_6665" data-name="Group 6665" transform="translate(-1208.524 -158.087)">
    <path id="Path_1148" data-name="Path 1148" d="M1220.053,173.264h-6.059a2.475,2.475,0,0,1-2.128-1.218l-3-5.123a2.471,2.471,0,0,1,0-2.5l3-5.122a2.475,2.475,0,0,1,2.128-1.218h6.059a2.475,2.475,0,0,1,2.128,1.218l3,5.122a2.47,2.47,0,0,1,0,2.5l-3,5.123A2.475,2.475,0,0,1,1220.053,173.264Zm-6.059-14.027a1.32,1.32,0,0,0-1.135.65l-3,5.122a1.317,1.317,0,0,0,0,1.331l3,5.123a1.32,1.32,0,0,0,1.135.651h6.059a1.322,1.322,0,0,0,1.135-.651l3-5.123a1.317,1.317,0,0,0,0-1.331l-3-5.122a1.322,1.322,0,0,0-1.135-.65Z" transform="translate(0)" fill="#2f2d32"/>
    <path id="Path_1149" data-name="Path 1149" d="M1226.948,176.172h-.978a1.225,1.225,0,0,1-.618-.166l-.843-.485a1.235,1.235,0,0,1-.452-.452l-.488-.841a1.239,1.239,0,0,1-.166-.618v-.971a1.239,1.239,0,0,1,.166-.618l.489-.842a1.22,1.22,0,0,1,.454-.452l.844-.486a1.242,1.242,0,0,1,.615-.163h.978a1.233,1.233,0,0,1,.614.163l.848.487a1.222,1.222,0,0,1,.452.452l.487.841a1.236,1.236,0,0,1,.167.618v.971a1.239,1.239,0,0,1-.166.618l-.489.843a1.235,1.235,0,0,1-.45.45l-.849.487A1.22,1.22,0,0,1,1226.948,176.172Zm-.978-4.834-.832.484-.478.83,0,.958.484.829.836.476.964,0,.833-.484.477-.832,0-.958-.484-.828-.829-.473Z" transform="translate(-9.435 -7.66)" fill="#2f2d32"/>
  </g>
</svg>
