<svg xmlns="http://www.w3.org/2000/svg" width="16.999" height="16.999" viewBox="0 0 16.999 16.999">
  <g id="Icone" transform="translate(-620.401 -736.27)">
    <path id="Path_1150" data-name="Path 1150" d="M632.877,753.269h-7.953a4.529,4.529,0,0,1-4.524-4.523v-7.952a4.529,4.529,0,0,1,4.524-4.524h7.953a4.529,4.529,0,0,1,4.523,4.524v7.952A4.529,4.529,0,0,1,632.877,753.269Zm-7.953-16a3.524,3.524,0,0,0-3.52,3.52v7.952a3.523,3.523,0,0,0,3.52,3.519h7.953a3.523,3.523,0,0,0,3.519-3.519v-7.952a3.523,3.523,0,0,0-3.519-3.52Z" fill="#fff"/>
    <g id="Group_6666" data-name="Group 6666" transform="translate(624.836 739.013)">
      <path id="Path_1151" data-name="Path 1151" d="M644.749,760.485v5.428a.5.5,0,1,1-1,0v-5.428a.5.5,0,0,1,1,0Z" transform="translate(-640.48 -754.905)" fill="#fff"/>
      <path id="Path_1152" data-name="Path 1152" d="M634.348,744.587a.5.5,0,0,1,.5.5V755.6a.5.5,0,1,1-1,0V745.089A.5.5,0,0,1,634.348,744.587Z" transform="translate(-633.846 -744.587)" fill="#fff"/>
      <path id="Path_1153" data-name="Path 1153" d="M654.456,750.42v8.762a.5.5,0,0,1-1,0V750.42a.5.5,0,0,1,1,0Z" transform="translate(-646.985 -748.16)" fill="#fff"/>
    </g>
  </g>
</svg>
